<svg width="341" height="191" viewBox="0 0 341 191" fill="none" xmlns="http://www.w3.org/2000/svg">
<rect x="1" y="1" width="339" height="189" fill="white"/>
<rect x="1" y="1" width="339" height="189" stroke="black" stroke-width="2"/>
<rect x="40" y="42" width="3" height="3" fill="black"/>
<rect x="40" y="45" width="3" height="3" fill="black"/>
<rect x="40" y="48" width="3" height="3" fill="black"/>
<rect x="40" y="51" width="3" height="3" fill="black"/>
<rect x="40" y="54" width="3" height="3" fill="black"/>
<rect x="40" y="57" width="3" height="3" fill="black"/>
<rect x="40" y="60" width="3" height="3" fill="black"/>
<rect x="40" y="63" width="3" height="3" fill="black"/>
<rect x="40" y="66" width="3" height="3" fill="black"/>
<rect x="40" y="69" width="3" height="3" fill="black"/>
<rect x="40" y="72" width="3" height="3" fill="black"/>
<rect x="40" y="75" width="3" height="3" fill="black"/>
<rect x="40" y="78" width="3" height="3" fill="black"/>
<rect x="73" y="42" width="3" height="3" transform="rotate(90 73 42)" fill="black"/>
<rect x="70" y="42" width="3" height="3" transform="rotate(90 70 42)" fill="black"/>
<rect x="67" y="42" width="3" height="3" transform="rotate(90 67 42)" fill="black"/>
<rect x="64" y="42" width="3" height="3" transform="rotate(90 64 42)" fill="black"/>
<rect x="61" y="42" width="3" height="3" transform="rotate(90 61 42)" fill="black"/>
<rect x="58" y="42" width="3" height="3" transform="rotate(90 58 42)" fill="black"/>
<rect x="55" y="42" width="3" height="3" transform="rotate(90 55 42)" fill="black"/>
<rect x="52" y="42" width="3" height="3" transform="rotate(90 52 42)" fill="black"/>
<rect x="49" y="42" width="3" height="3" transform="rotate(90 49 42)" fill="black"/>
<rect x="46" y="42" width="3" height="3" transform="rotate(90 46 42)" fill="black"/>
<rect x="76" y="45" width="3" height="3" transform="rotate(90 76 45)" fill="black"/>
<rect x="49" y="48" width="3" height="3" transform="rotate(90 49 48)" fill="black"/>
<rect x="49" y="45" width="3" height="3" transform="rotate(90 49 45)" fill="black"/>
<rect x="49" y="51" width="3" height="3" transform="rotate(90 49 51)" fill="black"/>
<rect x="70" y="48" width="3" height="3" transform="rotate(90 70 48)" fill="black"/>
<rect x="70" y="45" width="3" height="3" transform="rotate(90 70 45)" fill="black"/>
<rect x="70" y="51" width="3" height="3" transform="rotate(90 70 51)" fill="black"/>
<rect x="64" y="48" width="3" height="3" transform="rotate(90 64 48)" fill="black"/>
<rect x="64" y="45" width="3" height="3" transform="rotate(90 64 45)" fill="black"/>
<rect x="64" y="51" width="3" height="3" transform="rotate(90 64 51)" fill="black"/>
<rect x="70" y="54" width="3" height="3" transform="rotate(90 70 54)" fill="black"/>
<rect x="67" y="54" width="3" height="3" transform="rotate(90 67 54)" fill="black"/>
<rect x="64" y="54" width="3" height="3" transform="rotate(90 64 54)" fill="black"/>
<rect x="61" y="54" width="3" height="3" transform="rotate(90 61 54)" fill="black"/>
<rect x="58" y="54" width="3" height="3" transform="rotate(90 58 54)" fill="black"/>
<rect x="55" y="54" width="3" height="3" transform="rotate(90 55 54)" fill="black"/>
<rect x="52" y="54" width="3" height="3" transform="rotate(90 52 54)" fill="black"/>
<rect x="49" y="54" width="3" height="3" transform="rotate(90 49 54)" fill="black"/>
<rect x="73" y="63" width="3" height="3" transform="rotate(90 73 63)" fill="black"/>
<rect x="70" y="63" width="3" height="3" transform="rotate(90 70 63)" fill="black"/>
<rect x="67" y="63" width="3" height="3" transform="rotate(90 67 63)" fill="black"/>
<rect x="64" y="63" width="3" height="3" transform="rotate(90 64 63)" fill="black"/>
<rect x="61" y="63" width="3" height="3" transform="rotate(90 61 63)" fill="black"/>
<rect x="58" y="63" width="3" height="3" transform="rotate(90 58 63)" fill="black"/>
<rect x="55" y="63" width="3" height="3" transform="rotate(90 55 63)" fill="black"/>
<rect x="52" y="63" width="3" height="3" transform="rotate(90 52 63)" fill="black"/>
<rect x="49" y="63" width="3" height="3" transform="rotate(90 49 63)" fill="black"/>
<rect x="73" y="66" width="3" height="3" transform="rotate(90 73 66)" fill="black"/>
<rect x="49" y="66" width="3" height="3" transform="rotate(90 49 66)" fill="black"/>
<rect x="73" y="69" width="3" height="3" transform="rotate(90 73 69)" fill="black"/>
<rect x="49" y="69" width="3" height="3" transform="rotate(90 49 69)" fill="black"/>
<rect x="73" y="72" width="3" height="3" transform="rotate(90 73 72)" fill="black"/>
<rect x="49" y="72" width="3" height="3" transform="rotate(90 49 72)" fill="black"/>
<rect x="49" y="75" width="3" height="3" transform="rotate(90 49 75)" fill="black"/>
<rect x="73" y="75" width="3" height="3" transform="rotate(90 73 75)" fill="black"/>
<rect x="76" y="78" width="3" height="3" transform="rotate(90 76 78)" fill="black"/>
<rect x="73" y="78" width="3" height="3" transform="rotate(90 73 78)" fill="black"/>
<rect x="70" y="78" width="3" height="3" transform="rotate(90 70 78)" fill="black"/>
<rect x="67" y="78" width="3" height="3" transform="rotate(90 67 78)" fill="black"/>
<rect x="64" y="78" width="3" height="3" transform="rotate(90 64 78)" fill="black"/>
<rect x="61" y="78" width="3" height="3" transform="rotate(90 61 78)" fill="black"/>
<rect x="58" y="78" width="3" height="3" transform="rotate(90 58 78)" fill="black"/>
<rect x="55" y="78" width="3" height="3" transform="rotate(90 55 78)" fill="black"/>
<rect x="52" y="78" width="3" height="3" transform="rotate(90 52 78)" fill="black"/>
<rect x="49" y="78" width="3" height="3" transform="rotate(90 49 78)" fill="black"/>
<rect x="46" y="78" width="3" height="3" transform="rotate(90 46 78)" fill="black"/>
<rect x="79" y="81" width="3" height="3" transform="rotate(-180 79 81)" fill="black"/>
<rect x="79" y="78" width="3" height="3" transform="rotate(-180 79 78)" fill="black"/>
<rect x="79" y="75" width="3" height="3" transform="rotate(-180 79 75)" fill="black"/>
<rect x="79" y="72" width="3" height="3" transform="rotate(-180 79 72)" fill="black"/>
<rect x="79" y="69" width="3" height="3" transform="rotate(-180 79 69)" fill="black"/>
<rect x="79" y="66" width="3" height="3" transform="rotate(-180 79 66)" fill="black"/>
<rect x="79" y="63" width="3" height="3" transform="rotate(-180 79 63)" fill="black"/>
<rect x="79" y="60" width="3" height="3" transform="rotate(-180 79 60)" fill="black"/>
<rect x="79" y="57" width="3" height="3" transform="rotate(-180 79 57)" fill="black"/>
<rect x="79" y="54" width="3" height="3" transform="rotate(-180 79 54)" fill="black"/>
<rect x="79" y="51" width="3" height="3" transform="rotate(-180 79 51)" fill="black"/>
<path d="M99 46.25V34H109.5V35.75H111.25V39.25H109.5V41H111.25V44.5H109.5V46.25H99ZM102.5 39.25H107.75V35.75H102.5V39.25ZM102.5 44.5H107.75V41H102.5V44.5ZM116.5 46.25V44.5H114.75V42.75H113V37.5H114.75V35.75H116.5V34H123.5V35.75H125.25V37.5H121.75V35.75H118.25V37.5H116.5V42.75H118.25V44.5H121.75V42.75H125.25V44.5H123.5V46.25H116.5ZM132.25 46.25V35.75H128.75V34H139.25V35.75H135.75V46.25H132.25ZM141 46.25V37.5H142.75V35.75H144.5V34H149.75V35.75H151.5V37.5H153.25V46.25H149.75V42.75H144.5V46.25H141ZM144.5 41H149.75V37.5H148V35.75H146.25V37.5H144.5V41ZM155 46.25V34H165.5V35.75H167.25V39.25H165.5V41H167.25V44.5H165.5V46.25H155ZM158.5 39.25H163.75V35.75H158.5V39.25ZM158.5 44.5H163.75V41H158.5V44.5ZM169 46.25V34H172.5V37.5H179.5V39.25H181.25V44.5H179.5V46.25H169ZM172.5 44.5H177.75V39.25H172.5V44.5ZM188.25 46.25V35.75H184.75V34H195.25V35.75H191.75V46.25H188.25ZM197 46.25V34H209.25V35.75H200.5V39.25H207.5V41H200.5V44.5H209.25V46.25H197ZM99 69V65.5H100.75V62H102.5V55H111.25V65.5H113V69H109.5V67.25H102.5V69H99ZM104.25 65.5H107.75V56.75H104.25V65.5ZM113 67.25V55H116.5V62H118.25V60.25H120V58.5H121.75V55H125.25V67.25H121.75V62H120V63.75H118.25V65.5H116.5V67.25H113ZM130.5 67.25V65.5H128.75V63.75H127V58.5H128.75V56.75H130.5V55H137.5V56.75H139.25V58.5H135.75V56.75H132.25V58.5H130.5V63.75H132.25V65.5H135.75V63.75H139.25V65.5H137.5V67.25H130.5ZM146.25 58.5H148V60.25H149.75V62H151.5V65.5H153.25V67.25H149.75V65.5H148V62H144.5V67.25H141V55H144.5V60.25H146.25V58.5ZM153.25 55V56.75H151.5V58.5H148V56.75H149.75V55H153.25ZM155 67.25V55H167.25V56.75H158.5V60.25H165.5V62H158.5V65.5H167.25V67.25H155ZM174.25 67.25V56.75H170.75V55H181.25V56.75H177.75V67.25H174.25ZM184.75 67.25V65.5H183V63.75H186.5V65.5H191.75V62H184.75V60.25H183V55H186.5V60.25H191.75V55H195.25V65.5H193.5V67.25H184.75ZM198.75 69V67.25H200.5V63.75H204V67.25H202.25V69H198.75ZM233.75 67.25V62H226.75V60.25H225V55H228.5V60.25H233.75V55H237.25V67.25H233.75ZM244.25 67.25V56.75H240.75V55H251.25V56.75H247.75V67.25H244.25ZM254.75 67.25V65.5H253V56.75H254.75V55H263.5V56.75H265.25V65.5H263.5V67.25H254.75ZM256.5 65.5H261.75V56.75H256.5V65.5ZM267 67.25V55H277.5V56.75H270.5V60.25H277.5V62H279.25V65.5H277.5V67.25H267ZM270.5 65.5H275.75V62H270.5V65.5ZM281 67.25V55H284.5V58.5H288V67.25H281ZM289.75 67.25V55H293.25V67.25H289.75ZM284.5 65.5H286.25V60.25H284.5V65.5ZM99 88.25V76H111.25V88.25H107.75V77.75H102.5V88.25H99ZM113 88.25V76H123.5V77.75H125.25V83H123.5V84.75H116.5V88.25H113ZM116.5 83H121.75V77.75H116.5V83ZM128.75 88.25V86.5H127V77.75H128.75V76H137.5V77.75H139.25V86.5H137.5V88.25H128.75ZM130.5 86.5H135.75V77.75H130.5V86.5ZM141 90V86.5H142.75V83H144.5V76H153.25V86.5H155V90H151.5V88.25H144.5V90H141ZM146.25 86.5H149.75V77.75H146.25V86.5ZM156.75 88.25V86.5H155V77.75H156.75V76H165.5V77.75H167.25V86.5H165.5V88.25H156.75ZM158.5 86.5H163.75V77.75H158.5V86.5ZM169 88.25V84.75H170.75V83H172.5V76H181.25V88.25H177.75V77.75H174.25V86.5H172.5V88.25H169ZM186.5 76V81.25H184.75V79.5H183V76H186.5ZM190 81.25H191.75V83H190V88.25H188.25V83H186.5V81.25H188.25V76H190V81.25ZM195.25 76V79.5H193.5V81.25H191.75V76H195.25ZM184.75 83H186.5V88.25H183V84.75H184.75V83ZM191.75 88.25V83H193.5V84.75H195.25V88.25H191.75ZM197 88.25V76H200.5V83H202.25V81.25H204V79.5H205.75V76H209.25V88.25H205.75V83H204V84.75H202.25V86.5H200.5V88.25H197ZM216.25 88.25V77.75H212.75V76H223.25V77.75H219.75V88.25H216.25ZM225 88.25V76H228.5V79.5H235.5V81.25H237.25V86.5H235.5V88.25H225ZM228.5 86.5H233.75V81.25H228.5V86.5Z" fill="black"/>
<rect x="41" y="124" width="259" height="36" fill="white"/>
<rect x="41" y="124" width="259" height="36" stroke="black" stroke-width="2"/>
<path d="M158.25 147.75V146H156.5V137.25H158.25V135.5H167V137.25H168.75V146H167V147.75H158.25ZM160 146H165.25V137.25H160V146ZM175.75 139H177.5V140.75H179.25V142.5H181V146H182.75V147.75H179.25V146H177.5V142.5H174V147.75H170.5V135.5H174V140.75H175.75V139ZM182.75 135.5V137.25H181V139H177.5V137.25H179.25V135.5H182.75Z" fill="black"/>
</svg>
